<svg xmlns="http://www.w3.org/2000/svg"  viewBox="0 0 58 58" width="24px" height="24px"><circle cx="29" cy="29" r="29" fill="#949493"/><circle cx="24" cy="23" r="18" fill="#afafaa"/><circle cx="24" cy="23" r="11" fill="#cececc"/><path fill="#949493" d="M28,19c-2.757,0-5-2.243-5-5s2.243-5,5-5s5,2.243,5,5S30.757,19,28,19z M28,11c-1.654,0-3,1.346-3,3 s1.346,3,3,3s3-1.346,3-3S29.654,11,28,11z"/><path fill="#c7cac7" d="M11,33c-2.243,0-4-2.416-4-5.5S8.757,22,11,22s4,2.416,4,5.5S13.243,33,11,33z M11,24 c-0.946,0-2,1.438-2,3.5s1.054,3.5,2,3.5s2-1.438,2-3.5S11.946,24,11,24z"/><path fill="#c7cac7" d="M15.369,48.312c-1.204,0-2.557-0.586-3.671-1.7c-0.839-0.839-1.414-1.862-1.617-2.88 c-0.229-1.148,0.041-2.208,0.742-2.91c0.701-0.7,1.763-0.972,2.909-0.742c1.018,0.204,2.041,0.778,2.88,1.617 c1.868,1.868,2.252,4.411,0.875,5.789C16.931,48.043,16.185,48.312,15.369,48.312z M12.94,42.001c-0.241,0-0.516,0.05-0.702,0.236 c-0.313,0.312-0.241,0.875-0.196,1.103c0.125,0.625,0.516,1.303,1.07,1.858c1.098,1.098,2.47,1.368,2.961,0.875 c0.492-0.492,0.223-1.863-0.875-2.96c-0.555-0.555-1.232-0.945-1.858-1.07C13.249,42.024,13.102,42.001,12.94,42.001z"/><path fill="#c7cac7" d="M43,33c-2.757,0-5-2.243-5-5c0-0.552,0.448-1,1-1s1,0.448,1,1c0,1.654,1.346,3,3,3s3-1.346,3-3 s-1.346-3-3-3c-0.552,0-1-0.448-1-1s0.448-1,1-1c2.757,0,5,2.243,5,5S45.757,33,43,33z"/><path fill="#c7cac7" d="M32,53c-4.411,0-8-3.589-8-8s3.589-8,8-8c0.552,0,1,0.448,1,1s-0.448,1-1,1c-3.309,0-6,2.691-6,6 s2.691,6,6,6s6-2.691,6-6c0-0.552,0.448-1,1-1s1,0.448,1,1C40,49.411,36.411,53,32,53z"/><path fill="#c7cac7" d="M46,44c-0.552,0-1-0.448-1-1s0.448-1,1-1c1.654,0,3-1.346,3-3c0-0.552,0.448-1,1-1s1,0.448,1,1 C51,41.757,48.757,44,46,44z"/><path fill="#949493" d="M10,17c-0.552,0-1-0.448-1-1c0-2.206,1.794-4,4-4c0.552,0,1,0.448,1,1s-0.448,1-1,1 c-1.103,0-2,0.897-2,2C11,16.552,10.552,17,10,17z"/><path fill="#949493" d="M28,34c-0.552,0-1-0.448-1-1c0-2.206,1.794-4,4-4c0.552,0,1,0.448,1,1s-0.448,1-1,1 c-1.103,0-2,0.897-2,2C29,33.552,28.552,34,28,34z"/><path fill="#949493" d="M24,27c-0.552,0-1-0.448-1-1c0-1.103-0.897-2-2-2c-0.552,0-1-0.448-1-1s0.448-1,1-1 c2.206,0,4,1.794,4,4C25,26.552,24.552,27,24,27z"/><path fill="#c7cac7" d="M45,15c-0.552,0-1-0.448-1-1c0-2.206-1.794-4-4-4c-0.552,0-1-0.448-1-1s0.448-1,1-1 c3.309,0,6,2.691,6,6C46,14.552,45.552,15,45,15z"/></svg>